<?xml version="1.0" encoding="iso-8859-1"?>
<!-- Uploaded to: SVG Repo, www.svgrepo.com, Generator: SVG Repo Mixer Tools -->
<!DOCTYPE svg PUBLIC "-//W3C//DTD SVG 1.1//EN" "http://www.w3.org/Graphics/SVG/1.1/DTD/svg11.dtd">
<svg fill="#000000" version="1.1" id="Capa_1" xmlns="http://www.w3.org/2000/svg" xmlns:xlink="http://www.w3.org/1999/xlink" 
	 width="800px" height="800px" viewBox="0 0 512.578 512.578"
	 xml:space="preserve">
<g>
	<g>
		<polygon points="35.393,278.133 19.274,235.849 0,235.849 24.879,296.353 44.97,296.353 71.135,235.849 52.096,235.849 		"/>
		<rect x="75.782" y="235.849" width="16.119" height="60.506"/>
		<rect x="75.782" y="214.707" width="16.119" height="14.367"/>
		<path d="M128.154,235.265c-1.058,0.234-2.057,0.507-2.997,0.819c-2.038,0.7-3.685,1.713-4.939,3.036
			c-1.253,1.325-2.312,3.038-3.173,5.14v-8.41h-16.119v60.505h16.119v-47.423h18.105v-13.549c-1.175-0.311-2.429-0.468-3.762-0.468
			C130.289,234.914,129.212,235.03,128.154,235.265z"/>
		<path d="M180.107,283.039h-15.885c-1.948,0-3.778-0.7-5.49-2.104c-1.713-1.401-2.57-3.076-2.57-5.022v-40.064h-16.236v41.35
			c0,4.596,1.324,8.684,3.972,12.265c2.336,3.116,5.45,5.138,9.345,6.074c2.336,0.547,6.346,0.817,12.031,0.817h31.071v-60.506
			h-16.236v47.19H180.107z"/>
		<path d="M244.701,259.91h-18.105c-1.792,0-3.328-0.643-4.613-1.928c-1.285-1.284-1.928-2.819-1.928-4.613
			c0-1.636,0.487-3.096,1.461-4.38c0.973-1.284,2.12-1.928,3.446-1.928h34.339v-11.446h-38.545c-5.607,0-9.853,1.947-12.731,5.839
			c-2.495,3.428-3.738,7.943-3.738,13.549c0,3.972,1.668,7.671,5.008,11.097c3.339,3.428,6.794,5.142,10.368,5.142h16.772
			c6.833,0,10.251,2.528,10.251,7.593c0,2.182-0.798,3.854-2.389,5.021c-1.59,1.166-3.553,1.75-5.88,1.75h-32.846v10.98h40.063
			c5.062,0,9.249-1.83,12.56-5.49c3.309-3.658,4.963-8.059,4.963-13.197c0-5.217-1.654-9.521-4.963-12.906
			C254.882,261.605,250.384,259.91,244.701,259.91z"/>
		<path d="M291.971,214.707h-16.002v21.142h-10.281v12.615h10.281v28.269c0,3.19,0.27,5.957,0.814,8.291
			c0.545,2.338,1.752,4.479,3.621,6.425c3.193,3.271,7.047,4.905,11.564,4.905h15.066v-11.797h-4.789
			c-3.193,0-5.764-0.818-7.709-2.453c-1.715-1.638-2.568-3.697-2.568-6.19v-27.45h15.77v-12.614h-15.77L291.971,214.707
			L291.971,214.707z"/>
		<path d="M370.629,243.747c-6.35-5.265-14.775-7.898-25.289-7.898c-9.576,0-17.639,2.458-24.18,7.373
			c-7.32,5.46-10.979,12.95-10.979,22.469c0,11.39,3.389,19.775,10.162,25.16c5.84,4.683,14.055,7.021,24.645,7.021
			c10.588,0,18.959-2.573,25.113-7.726c6.695-5.614,10.045-13.69,10.045-24.225C380.148,256.407,376.973,249.014,370.629,243.747z
			 M358.189,280.336c-2.805,3.673-7.088,5.506-12.852,5.506c-5.062,0-9.189-1.757-12.383-5.271
			c-3.191-3.515-4.789-8.24-4.789-14.179c0-5.156,1.576-9.432,4.73-12.832c3.152-3.397,7.143-5.097,11.973-5.097
			c5.295,0,9.48,1.661,12.559,4.981c3.072,3.321,4.611,7.44,4.611,12.36C362.041,272.131,360.756,276.978,358.189,280.336z"/>
		<path d="M408.963,214.707h-16.006v21.142H382.68v12.615h10.277v28.269c0,3.19,0.271,5.957,0.818,8.291
			c0.545,2.338,1.75,4.479,3.619,6.425c3.193,3.271,7.047,4.905,11.564,4.905h15.068v-11.797h-4.791
			c-3.191,0-5.764-0.818-7.707-2.453c-1.715-1.638-2.57-3.697-2.57-6.19v-27.45h15.77v-12.614h-15.766V214.707z"/>
		<path d="M480.467,241.678c-2.025-1.943-4.439-3.4-7.24-4.371c-2.805-0.972-7.049-1.458-12.732-1.458h-5.021h-25.934v13.315h30.166
			c2.098,0,3.73,0.176,4.895,0.524c1.166,0.351,2.287,1.15,3.375,2.396c0.777,1.012,1.342,1.888,1.689,2.627
			c0.35,0.741,0.523,1.618,0.523,2.627v3.271h-28.193c-4.736,0-8.68,1.729-11.824,5.18c-3.146,3.454-4.719,7.818-4.719,13.098
			c0,5.047,1.732,9.219,5.197,12.52c3.465,3.3,7.65,4.945,12.557,4.945h43.688v-34.623c0-4.741-0.432-8.625-1.285-11.657
			C484.746,247.042,483.035,244.244,480.467,241.678z M470.188,283.972h-21.025c-1.713,0-3.23-0.537-4.555-1.617
			c-1.326-1.078-1.986-2.428-1.986-4.049c0-1.851,0.682-3.334,2.045-4.453c1.361-1.116,3.018-1.679,4.965-1.679h20.557V283.972
			L470.188,283.972z"/>
		<rect x="496.109" y="214.707" width="16.469" height="81.648"/>
	</g>
</g>
</svg>